<?xml version="1.0" encoding="iso-8859-1"?>
<!-- Generator: Adobe Illustrator 19.0.0, SVG Export Plug-In . SVG Version: 6.00 Build 0)  -->
<svg version="1.1" id="Capa_1" xmlns="http://www.w3.org/2000/svg" xmlns:xlink="http://www.w3.org/1999/xlink" x="0px" y="0px"
	 viewBox="0 0 512 512" style="enable-background:new 0 0 512 512;" xml:space="preserve">
<path style="fill:#FFD15C;" d="M397.867,35.2H22.4C9.6,35.2,0,45.867,0,57.6v433.067C0,502.4,9.6,512,22.4,512h375.467
	c11.733,0,22.4-9.6,22.4-22.4v-432C419.2,45.867,409.6,35.2,397.867,35.2z"/>
<rect id="SVGCleanerId_0" x="42.667" y="77.867" style="fill:#F2F2F2;" width="333.867" height="391.467"/>
<g>
	<rect id="SVGCleanerId_0_1_" x="42.667" y="77.867" style="fill:#F2F2F2;" width="333.867" height="391.467"/>
</g>
<g>
	<rect x="85.333" y="154.667" style="fill:#CDD6E0;" width="248.533" height="32"/>
	<rect x="85.333" y="234.667" style="fill:#CDD6E0;" width="248.533" height="32"/>
	<rect x="85.333" y="314.667" style="fill:#CDD6E0;" width="248.533" height="32"/>
	<rect x="85.333" y="394.667" style="fill:#CDD6E0;" width="248.533" height="32"/>
</g>
<path style="fill:#FFD15C;" d="M227.2,308.267l-21.333,81.067l0,0L286.933,368C310.4,344.533,250.667,284.8,227.2,308.267z"/>
<path style="fill:#3DC9AE;" d="M405.333,131.2L227.2,308.267c13.867,0,20.267,6.4,19.2,19.2L423.467,150.4L405.333,131.2z"/>
<path style="fill:#4CDBC4;" d="M424.533,150.4L247.467,328.533c13.867,0,20.267,6.4,19.2,19.2L444.8,170.667L424.533,150.4z"/>
<path style="fill:#3DC9AE;" d="M444.8,170.667L266.667,347.733c13.867,0,20.267,6.4,19.2,19.2l177.067-177.067L444.8,170.667z"/>
<path style="fill:#FF7058;" d="M508.8,145.067l-44.8,44.8L405.333,131.2l44.8-44.8c4.267-4.267,10.667-4.267,14.933,0l43.733,43.733
	C513.067,134.4,513.067,140.8,508.8,145.067z"/>
<rect x="427.632" y="114.808" transform="matrix(-0.7071 0.7071 -0.7071 -0.7071 859.7305 -43.2969)" style="fill:#F2F2F2;" width="22.4" height="83.199"/>
<g>
	<path style="fill:#40596B;" d="M232.533,381.867c-2.133-9.6-9.6-17.067-19.2-19.2l-7.467,26.667L232.533,381.867z"/>
	<path style="fill:#40596B;" d="M310.4,92.8l-11.733-65.067C295.467,11.733,281.6,0,265.6,0H154.667
		c-16,0-29.867,11.733-33.067,27.733L109.867,92.8H310.4z"/>
</g>
<g>
</g>
<g>
</g>
<g>
</g>
<g>
</g>
<g>
</g>
<g>
</g>
<g>
</g>
<g>
</g>
<g>
</g>
<g>
</g>
<g>
</g>
<g>
</g>
<g>
</g>
<g>
</g>
<g>
</g>
</svg>
